<svg width="0" height="0" class="hidden">
  <symbol xmlns="http://www.w3.org/2000/svg" viewBox="0 0 24 24" id="icon-account">
    <path d="M12 15.2c4 0 7.2-3.2 7.2-7.2S16 .8 12 .8 4.8 4 4.8 8 8 15.2 12 15.2zm6.4-1.2c-1.6 1.7-3.9 2.8-6.4 2.8-2.5 0-4.8-1.1-6.4-2.8-2.9 2-4.8 5.4-4.8 9.2h22.4c0-3.8-1.9-7.2-4.8-9.2z"></path>
  </symbol>
  <symbol xmlns="http://www.w3.org/2000/svg" viewBox="0 0 24 24" id="icon-agrume1">
    <path d="M2.667 12.881a9.354 9.354 0 0 1 9.343-9.343h2.5V4.5a.681.681 0 0 0 .354.606.772.772 0 0 0 .328.075.713.713 0 0 0 .379-.1l2.98-1.894a.679.679 0 0 0 0-1.161L15.571.105a.706.706 0 0 0-.707-.025.681.681 0 0 0-.354.606v.96h-2.5A11.255 11.255 0 0 0 .8 12.883a.934.934 0 1 0 1.868 0zm20.3-2.273a.94.94 0 0 0-.909-.757.428.428 0 0 0-.177.025.947.947 0 0 0-.732 1.111c.076.4.126.808.177 1.212a.936.936 0 0 0 .934.859h.076a.936.936 0 0 0 .859-1.006 14.322 14.322 0 0 0-.227-1.44zm-3.03-2.625a.937.937 0 0 0 1.288.3 1.014 1.014 0 0 0 .429-.581.863.863 0 0 0-.125-.702 9.348 9.348 0 0 0-.858-1.187 1 1 0 0 0-.631-.354h-.1a.953.953 0 0 0-.581.2 1 1 0 0 0-.359.63.919.919 0 0 0 .2.68 6.781 6.781 0 0 1 .734 1.014zm2.2 6.767a.865.865 0 0 0-.253-.026.972.972 0 0 0-.909.68 8.631 8.631 0 0 1-.4 1.137.945.945 0 0 0 1.742.732 8.941 8.941 0 0 0 .48-1.389.965.965 0 0 0-.075-.707 1.013 1.013 0 0 0-.581-.427zm-2.627 4.191h-.025a.945.945 0 0 0-.656.3 9.036 9.036 0 0 1-.884.833.927.927 0 0 0-.135 1.3l.009.011a.952.952 0 0 0 1.313.126 10.015 10.015 0 0 0 1.06-1.01.92.92 0 0 0-.037-1.3l-.013-.012a.993.993 0 0 0-.632-.252zm-8.787 3.182a6.181 6.181 0 0 1-1.187-.253.854.854 0 0 0-.252-.025.95.95 0 0 0-.454.126.854.854 0 0 0-.43.556.956.956 0 0 0 .657 1.16 12.156 12.156 0 0 0 1.44.3.957.957 0 0 0 1.061-.808.9.9 0 0 0-.177-.68 1.041 1.041 0 0 0-.658-.379zm-5.05-2.374a.993.993 0 0 0-.633-.249h-.025a.942.942 0 0 0-.657.3.955.955 0 0 0-.252.681.945.945 0 0 0 .3.656 10.031 10.031 0 0 0 1.136.909.988.988 0 0 0 1.313-.227.936.936 0 0 0-.216-1.306l-.011-.007a9.832 9.832 0 0 1-.959-.756zm-2.45-3.686a.9.9 0 0 0-.48-.531 1.065 1.065 0 0 0-.4-.1 1.514 1.514 0 0 0-.328.051.945.945 0 0 0-.555 1.212 12.689 12.689 0 0 0 .581 1.338.937.937 0 0 0 1.659-.859 8.822 8.822 0 0 1-.479-1.113zm12.626 5.656a1.051 1.051 0 0 0-.4-.1 1.246 1.246 0 0 0-.3.05 9.943 9.943 0 0 1-1.16.328.886.886 0 0 0-.581.4.975.975 0 0 0-.126.707.96.96 0 0 0 1.111.732 9.048 9.048 0 0 0 1.414-.4.9.9 0 0 0 .53-.48.863.863 0 0 0 .025-.707 1.143 1.143 0 0 0-.506-.529zm.126-6.768a.167.167 0 0 1-.025-.151 4.207 4.207 0 0 0 .2-.505.169.169 0 0 1 .127-.1l1.565-.152a.469.469 0 0 0 .429-.48v-1.339a.489.489 0 0 0-.429-.48l-1.565-.177a.169.169 0 0 1-.127-.1 2.965 2.965 0 0 0-.2-.5.121.121 0 0 1 .025-.152l.984-1.215a.5.5 0 0 0-.025-.657l-.96-.984a.472.472 0 0 0-.657-.026l-1.211.985a.121.121 0 0 1-.152.025c-.177-.076-.329-.152-.505-.227a.169.169 0 0 1-.1-.127L13.2 7.022a.471.471 0 0 0-.48-.429h-1.342a.491.491 0 0 0-.48.429l-.151 1.565a.169.169 0 0 1-.1.127 1.808 1.808 0 0 0-.505.227c-.1.025-.177.025-.2-.025l-1.213-.985a.5.5 0 0 0-.657.026l-.96.96a.472.472 0 0 0-.025.656l.985 1.212a.169.169 0 0 1 .025.152 3.986 3.986 0 0 0-.2.505.165.165 0 0 1-.127.1l-1.59.177a.471.471 0 0 0-.43.48v1.339a.492.492 0 0 0 .43.48l1.565.151a.167.167 0 0 1 .126.1 3.058 3.058 0 0 0 .2.505.121.121 0 0 1-.025.152l-.985 1.212a.5.5 0 0 0 .026.657l.96.96a.472.472 0 0 0 .656.025l1.214-.98a.169.169 0 0 1 .152-.025 4.142 4.142 0 0 0 .5.2.165.165 0 0 1 .1.127l.152 1.565a.471.471 0 0 0 .48.429h1.338a.491.491 0 0 0 .481-.429l.151-1.565a.169.169 0 0 1 .1-.127 1.808 1.808 0 0 0 .5-.227.121.121 0 0 1 .152.025l1.211.985a.5.5 0 0 0 .657-.025l.96-.961a.471.471 0 0 0 .025-.656zm-3.964.328a2.424 2.424 0 1 1 2.424-2.424 2.425 2.425 0 0 1-2.425 2.425z"></path>
  </symbol>
  <symbol xmlns="http://www.w3.org/2000/svg" viewBox="0 0 24 24" id="icon-arrow-circle-left">
    <path d="M12 0C5.4 0 0 5.4 0 12s5.4 12 12 12 12-5.4 12-12S18.6 0 12 0zm0 22.4C6.3 22.4 1.6 17.7 1.6 12S6.3 1.6 12 1.6 22.4 6.3 22.4 12 17.7 22.4 12 22.4zm-.5-14.9l-1.1-1.1L4.8 12l5.6 5.6 1.1-1.1-3.7-3.7h11.3v-1.6H7.9l3.6-3.7z"></path>
  </symbol>
  <symbol xmlns="http://www.w3.org/2000/svg" viewBox="0 0 24 24" id="icon-arrow-circle-right">
    <path d="M12 0C5.4 0 0 5.4 0 12s5.4 12 12 12 12-5.4 12-12S18.6 0 12 0zm0 22.4C6.3 22.4 1.6 17.7 1.6 12S6.3 1.6 12 1.6 22.4 6.3 22.4 12 17.7 22.4 12 22.4zm.5-14.9l3.7 3.7H4.8v1.6h11.4l-3.7 3.7 1.1 1.1 5.6-5.6-5.6-5.6-1.1 1.1z"></path>
  </symbol>
  <symbol xmlns="http://www.w3.org/2000/svg" viewBox="0 0 24 24" id="icon-icon-arrow-left">
    <path d="M23.2 11.2H3.9l6.9-6.9-1.2-1.1L.8 12l8.8 8.8 1.1-1.1-6.9-6.9h19.3v-1.6z"></path>
  </symbol>
  <symbol xmlns="http://www.w3.org/2000/svg" viewBox="0 0 24 24" id="icon-arrow-right">
    <path d="M.8 11.2h19.4l-6.9-6.9 1.1-1.1 8.8 8.8-8.8 8.8-1.1-1.1 6.9-6.9H.8v-1.6z"></path>
  </symbol>
  <symbol xmlns="http://www.w3.org/2000/svg" viewBox="0 0 24 24" id="icon-astuce">
    <path d="M12 0a12 12 0 1 0 12 12A12 12 0 0 0 12 0zm2.036 17.925a.742.742 0 0 1-.74.742H10.7a.742.742 0 0 1-.74-.742v-.37h4.073zm0-1.11H9.963v-.742h4.073zM12 12.917a.845.845 0 1 1 .845-.846.845.845 0 0 1-.845.846zm2.056 2.416h-1.723v-1.816a1.493 1.493 0 0 0 1.183-1.446 1.512 1.512 0 0 0-3.024 0 1.492 1.492 0 0 0 1.175 1.444v1.818H9.933c-.244-1.966-2.384-2.737-2.384-5.77a4.451 4.451 0 0 1 8.89 0c.005 3.037-2.139 3.804-2.379 5.77z"></path>
  </symbol>
  <symbol xmlns="http://www.w3.org/2000/svg" viewBox="0 0 24 24" id="icon-attention">
    <path d="M12.228 0A12 12 0 1 0 24 12.228 12 12 0 0 0 12.228 0zm-1.57 6.642a1.312 1.312 0 0 1 2.623 0v6.448a1.312 1.312 0 1 1-2.623 0zM12 18.667a1.4 1.4 0 1 1 1.4-1.4 1.4 1.4 0 0 1-1.4 1.4z"></path>
  </symbol>
  <symbol xmlns="http://www.w3.org/2000/svg" viewBox="0 0 24 24" id="icon-calcul">
    <path d="M19.406 0H4.594A2.215 2.215 0 0 0 2.4 2.235V21.76A2.215 2.215 0 0 0 4.589 24h14.816a2.214 2.214 0 0 0 2.2-2.233V2.24A2.215 2.215 0 0 0 19.411 0zm-9.184 20a.554.554 0 0 1-.8.768l-1.44-1.459a.135.135 0 0 0-.192 0l-1.44 1.459a.554.554 0 1 1-.8-.768L7 18.52a.14.14 0 0 0 0-.2l-1.44-1.459a.554.554 0 1 1 .755-.811l1.455 1.48a.136.136 0 0 0 .192 0l1.44-1.459a.554.554 0 0 1 .8.768l-1.454 1.48a.141.141 0 0 0 0 .2zm-.171-7.438h-1.48a.138.138 0 0 0-.137.139v1.5a.549.549 0 0 1-1.1.031V12.7a.139.139 0 0 0-.134-.144H5.72a.56.56 0 0 1-.029-1.12H7.2a.139.139 0 0 0 .138-.139v-1.5a.549.549 0 1 1 1.1-.031V11.3a.14.14 0 0 0 .138.139h1.504a.561.561 0 0 1-.029 1.121zm6.064 8.651a.837.837 0 1 1 .822-.851v.014a.832.832 0 0 1-.824.834zm2.194-2.24H13.92a.56.56 0 1 1 0-1.12h4.389a.562.562 0 0 1 0 1.123zm-3.018-2.512a.835.835 0 1 1 0 .005zm3.018-3.907H13.92a.56.56 0 0 1 0-1.12h4.389a.562.562 0 1 1 0 1.124zm1.1-6.42a.554.554 0 0 1-.548.559H5.142a.554.554 0 0 1-.548-.559V2.79a.554.554 0 0 1 .548-.558h13.714a.554.554 0 0 1 .549.558z"></path>
  </symbol>
  <symbol xmlns="http://www.w3.org/2000/svg" viewBox="0 0 24 24" id="icon-chat">
    <path d="M20.8 9.6h-8c-1.8 0-3.2 1.4-3.2 3.2v4.8c0 1.8 1.4 3.2 3.2 3.2H16l4.8 3.2v-3.2c1.8 0 3.2-1.4 3.2-3.2v-4.8c0-1.8-1.4-3.2-3.2-3.2zM14.4 8V3.2C14.4 1.4 13 0 11.2 0h-8C1.4 0 0 1.4 0 3.2V8c0 1.8 1.4 3.2 3.2 3.2v3.2L8 11.2h.3C8.9 9.3 10.7 8 12.8 8h1.6z"></path>
  </symbol>
  <symbol xmlns="http://www.w3.org/2000/svg" viewBox="0 0 24 24" id="icon-check-circle">
    <path d="M12 0C5.4 0 0 5.4 0 12s5.4 12 12 12 12-5.4 12-12S18.6 0 12 0zM9.6 17.6l-4.8-5.3L6 11.2l3.6 4.1 8.5-8.9 1.1 1.2-9.6 10z"></path>
  </symbol>
  <symbol xmlns="http://www.w3.org/2000/svg" viewBox="0 0 24 24" id="icon-chevron-down">
    <path d="M21.6 8.5L12 18.6l-9.6-10 1.1-1.2 8.5 8.9 8.5-8.9 1.1 1.1z"></path>
  </symbol>
  <symbol xmlns="http://www.w3.org/2000/svg" viewBox="0 0 24 24" id="icon-chevron-up">
    <path d="M21.6 15.5L12 5.4 2.4 15.5l1.1 1.1L12 7.7l8.5 8.9 1.1-1.1z"></path>
  </symbol>
  <symbol xmlns="http://www.w3.org/2000/svg" viewBox="0 0 16 16" id="icon-chevron-right">
    <path d="M26.4,18.025,14.4,5.4,2.4,18.025,3.775,19.4,14.4,8.275,25.025,19.4Z" transform="translate(16 -6.4) rotate(90)"/>
  </symbol>
  <symbol xmlns="http://www.w3.org/2000/svg" viewBox="0 0 16 16" id="icon-chevron-right-grey">
    <path style="fill:#757575" d="M26.4,18.025,14.4,5.4,2.4,18.025,3.775,19.4,14.4,8.275,25.025,19.4Z" transform="translate(16 -6.4) rotate(90)"/>
  </symbol>
  <symbol xmlns="http://www.w3.org/2000/svg" viewBox="0 0 24 24" id="icon-chevron-left">
    <path class="a" d="M26.4,8.775,14.4,21.4,2.4,8.9,3.775,7.4,14.4,18.525,25.025,7.4Z" transform="translate(21.4 -6.4) rotate(90)"/>
  </symbol>
  <symbol xmlns="http://www.w3.org/2000/svg" viewBox="0 0 24 24" id="icon-close">
    <path d="M20.8 4.3l-1.1-1.1-7.7 7.7-7.7-7.7-1.1 1.1 7.7 7.7-7.7 7.7 1.1 1.1 7.7-7.7 7.7 7.7 1.1-1.1-7.7-7.7 7.7-7.7z"></path>
  </symbol>
  <symbol xmlns="http://www.w3.org/2000/svg" viewBox="0 0 24 24" id="icon-copy">
    <path d="M8 11.2h6.4L8 4.8v6.4zM6.4 4.8H0V24h14.4V12.8h-8v-8zM17.6 0v6.4H24L17.6 0zM16 0H9.6v4.1l6.4 6.4v8.7h8V8h-8V0z"></path>
  </symbol>
  <symbol xmlns="http://www.w3.org/2000/svg" viewBox="0 0 24 24" id="icon-download">
    <path d="M19.2 12l-1.1-1.1-5.3 5.3V1.6h-1.6v14.6l-5.3-5.3L4.8 12l7.2 7.2 7.2-7.2zM1.6 20.8v1.6h20.8v-1.6H1.6z"></path>
  </symbol>
  <symbol xmlns="http://www.w3.org/2000/svg" viewBox="0 0 24 24" id="icon-edit">
    <path d="M20.3 9.4l-5.7-5.7L3.7 14.6l5.7 5.7L20.3 9.4zm-1.9-7.8c-.9 0-1.9.3-2.7 1l5.7 5.7c.7-.8 1-1.9 1-2.7 0-2.2-1.8-4-4-4zm-16 14.3l-.8 6.5 6.5-.8.2-.2-5.7-5.7-.2.2z"></path>
  </symbol>
  <symbol xmlns="http://www.w3.org/2000/svg" viewBox="0 0 24 24" id="icon-exemple">
    <path d="M12 0a12 12 0 1 0 12 12A12 12 0 0 0 12 0zm6.667 13.041a.218.218 0 0 1-.216.219h-3.87a.219.219 0 0 0-.189.328l1.931 3.319a.219.219 0 0 1-.079.3l-1.824 1.042a.217.217 0 0 1-.3-.079l-1.935-3.32a.217.217 0 0 0-.377 0l-1.935 3.32a.219.219 0 0 1-.3.081l-1.817-1.044a.22.22 0 0 1-.081-.3l1.93-3.319a.218.218 0 0 0-.189-.328H5.549a.219.219 0 0 1-.218-.219V10.96a.219.219 0 0 1 .218-.219h3.867a.217.217 0 0 0 .219-.218.208.208 0 0 0-.03-.111l-1.93-3.319a.22.22 0 0 1 .081-.3l1.823-1.041a.217.217 0 0 1 .3.079l1.935 3.321a.217.217 0 0 0 .3.081.21.21 0 0 0 .081-.081l1.935-3.321a.217.217 0 0 1 .3-.079l1.823 1.041a.22.22 0 0 1 .081.3l-1.931 3.319a.22.22 0 0 0 .082.3.212.212 0 0 0 .107.029h3.867a.218.218 0 0 1 .219.216v2.084z"></path>
  </symbol>
  <symbol xmlns="http://www.w3.org/2000/svg" viewBox="0 0 24 24" id="icon-external-link">
    <path d="M21.336 14.669v6.669A2.666 2.666 0 0 1 18.669 24h-16A2.667 2.667 0 0 1 0 21.336v-16a2.668 2.668 0 0 1 2.667-2.67h6.669v2.667H2.667v16h16v-6.664zm0-10.116l-9.729 9.723-1.887-1.887 9.726-9.723h-6.114V0H24v10.668h-2.667z" fill-rule="evenodd"></path>
  </symbol>
  <symbol xmlns="http://www.w3.org/2000/svg" viewBox="0 0 24 24" id="icon-eye-invisible">
    <path d="M12 16c2.2 0 4-1.8 4-4 0-.8-.2-1.6-.7-2.2l-5.5 5.5c.6.5 1.4.7 2.2.7zm-4-4c0 .8.2 1.6.7 2.2l5.5-5.5c-.6-.5-1.4-.7-2.2-.7-2.2 0-4 1.8-4 4zm11.3-6.2l-2.8 2.8c.7.9 1.1 2.1 1.1 3.4 0 3.1-2.5 5.6-5.6 5.6-1.3 0-2.4-.4-3.4-1.1L6.1 19c1.9 1.1 4 1.8 5.9 1.8 5.1 0 12-5.2 12-8.8 0-2-2-4.4-4.7-6.2zM6.4 12c0-3.1 2.5-5.6 5.6-5.6 1.3 0 2.4.4 3.4 1.1L17.9 5c-1.9-1.1-4-1.8-5.9-1.8C6.9 3.2 0 8.4 0 12c0 2 2 4.4 4.7 6.2l2.8-2.8c-.7-1-1.1-2.1-1.1-3.4zm16-9.3l-1.1-1.1L17.9 5c.5.3.9.6 1.4.9l3.1-3.2zM1.6 21.3l1.1 1.1L6.1 19c-.5-.3-.9-.6-1.4-.9l-3.1 3.2z"></path>
  </symbol>
  <symbol xmlns="http://www.w3.org/2000/svg" viewBox="0 0 24 24" id="icon-eye-visible">
    <path d="M12 8c-2.2 0-4 1.8-4 4s1.8 4 4 4 4-1.8 4-4-1.8-4-4-4zm0-4.8C6.9 3.2 0 8.4 0 12s6.9 8.8 12 8.8 12-5.2 12-8.8-6.9-8.8-12-8.8zm0 14.4c-3.1 0-5.6-2.5-5.6-5.6S8.9 6.4 12 6.4s5.6 2.5 5.6 5.6-2.5 5.6-5.6 5.6z"></path>
  </symbol>
  <symbol xmlns="http://www.w3.org/2000/svg" viewBox="0 0 24 24" id="icon-facebook">
    <path d="M22.1.8H2C1.4.8.8 1.4.8 2v19.9c0 .7.6 1.3 1.2 1.3h10.8v-8.6H9.9v-3.4h2.9V8.7c0-2.9 1.8-4.5 4.3-4.5.9 0 1.8.1 2.6.2v3h-1.8c-1.4 0-1.7.6-1.7 1.7v2.2h3.4l-.5 3.3h-3v8.6H22c.7 0 1.2-.6 1.2-1.2V2c.1-.6-.5-1.2-1.1-1.2z"></path>
  </symbol>
  <symbol xmlns="http://www.w3.org/2000/svg" viewBox="0 0 24 24" id="icon-favorite">
    <path d="M12 23.249l-1.74-1.618C4.089 15.906 0 12.129 0 7.5A6.609 6.609 0 0 1 6.472.753h.129A7.127 7.127 0 0 1 12 3.314 7.127 7.127 0 0 1 17.4.751 6.608 6.608 0 0 1 24 7.366v.129c0 4.628-4.08 8.411-10.259 14.148z"></path>
  </symbol>
  <symbol xmlns="http://www.w3.org/2000/svg" viewBox="0 0 24 24" id="icon-informe">
    <path d="M20.728 3.273a1.089 1.089 0 0 1 1.091 1.087v18.548A1.093 1.093 0 0 1 20.727 24H4.364a2.182 2.182 0 1 1 0-4.364h14.178a2.169 2.169 0 0 0 1.094-.3v1.828a.1.1 0 0 1-.105.105H4.363v1.091h15.168a1.2 1.2 0 0 0 1.2-1.2zM10.361 5.856h-.026a.265.265 0 0 0-.078.021A2.618 2.618 0 0 0 8.6 7.869a.277.277 0 0 0 .544.1 2.076 2.076 0 0 1 1.309-1.576.277.277 0 0 0-.095-.536zm9.276-4.764v16.36a1.1 1.1 0 0 1-1.095 1.093H4.364a3.268 3.268 0 0 0-2.182.835V1.093A1.1 1.1 0 0 1 3.275 0h15.269a1.094 1.094 0 0 1 1.093 1.092zm-8.727 2.82a.277.277 0 0 0 .553 0V2.805a.277.277 0 0 0-.553 0zM7.039 8.336a.277.277 0 0 0-.277-.277h-1.1a.277.277 0 1 0 0 .553h1.1a.276.276 0 0 0 .276-.277zM7.864 5.4a.275.275 0 0 0 .389-.388l-.783-.78a.275.275 0 0 0-.388.388zm4.843 8.74h-3.04v.276a.553.553 0 0 0 .553.553h.415v.277a.553.553 0 0 0 1.106 0v-.277h.415a.554.554 0 0 0 .553-.553zm0-1.106h-3.04v.553h3.04zm1.8-4.86a3.322 3.322 0 0 0-6.636 0c0 2.263 1.6 2.84 1.78 4.307h3.076c.182-1.468 1.78-2.044 1.78-4.308zm.783-3.554a.275.275 0 1 0-.371-.406l-.017.018-.782.782a.275.275 0 0 0 .388.388zm1.7 3.716a.276.276 0 0 0-.276-.277H15.61a.277.277 0 0 0 0 .553h1.108a.277.277 0 0 0 .277-.276z"></path>
  </symbol>
  <symbol xmlns="http://www.w3.org/2000/svg" viewBox="0 0 24 24" id="icon-linkedin">
    <path d="M21.4.8h-19C1.4.8.7 1.5.7 2.4v19.2c0 .9.7 1.6 1.7 1.6h19.1c.9 0 1.7-.7 1.7-1.6V2.4c-.1-.9-.8-1.6-1.8-1.6zm-14 19.1H4.1V9.2h3.3v10.7zM5.7 7.8c-1 0-1.9-.9-1.9-1.9S4.7 4 5.7 4s1.9.9 1.9 1.9-.7 1.9-1.9 1.9zm14.2 12.1h-3.3v-5.2c0-1.2 0-2.8-1.8-2.8s-2 1.4-2 2.7v5.3H9.5V9.2h3.2v1.4h.1c.5-.9 1.5-1.8 3.1-1.8 3.3 0 4 2.2 4 5.1v6z"></path>
  </symbol>
  <symbol xmlns="http://www.w3.org/2000/svg" viewBox="0 0 24 24" id="icon-mail">
    <path d="M12 14.4c1 0 1.5-.8 2.4-1.6L24 3.2H0l9.6 9.6c.9.8 1.4 1.6 2.4 1.6zM0 5.5v13.3l7.4-6L0 5.5zm24 13.3V5.5l-7.4 7.3 7.4 6zm-8.8-4.6c-.7.7-1.6 1.8-3.2 1.8s-2.5-1.2-3.2-1.8l-.3-.3L0 20.8h24l-8.5-6.9-.3.3z"></path>
  </symbol>
  <symbol xmlns="http://www.w3.org/2000/svg" viewBox="0 0 24 24" id="icon-menu">
    <path d="M1.6 3.2v1.6h20.8V3.2H1.6zm0 9.6h20.8v-1.6H1.6v1.6zm0 8h20.8v-1.6H1.6v1.6z"></path>
  </symbol>
  <symbol xmlns="http://www.w3.org/2000/svg" viewBox="0 0 24 24" id="icon-modele">
    <path d="M23.186 10.939a.585.585 0 0 0-.087-.247.517.517 0 0 0-.069-.1.823.823 0 0 0-.108-.1.652.652 0 0 0-.055-.05l-2.776-1.623v-7.04A1.822 1.822 0 0 0 18.234 0H5.768a1.821 1.821 0 0 0-1.857 1.779v7.04l-2.778 1.628c-.021.015-.035.036-.054.05a.653.653 0 0 0-.235.314.528.528 0 0 0-.027.137.432.432 0 0 0-.017.071v12.319a.748.748 0 0 0 .018.082.682.682 0 0 0 .032.149.725.725 0 0 0 .061.1.717.717 0 0 0 .053.093.131.131 0 0 0 .027.019.626.626 0 0 0 .091.072.71.71 0 0 0 .13.085.386.386 0 0 0 .076.02.723.723 0 0 0 .189.042H22.5a25.751 25.751 0 0 0 .275-.059c.03-.013.051-.036.08-.052a.615.615 0 0 0 .16-.112.109.109 0 0 0 .024-.017.461.461 0 0 0 .045-.085.583.583 0 0 0 .07-.118.8.8 0 0 0 .027-.136.726.726 0 0 0 .02-.09V11.012c-.001-.024-.01-.049-.015-.073zM6.589 3.224H12v1.44H6.589zm0 2.616H16.97v1.44H6.589zm0 2.366H16.97v1.44H6.589zm0 2.547H16.97v1.44H6.589zM2.188 12.7l6.2 4.24-6.2 4.96zm1.224 9.968l8.582-6.88 8.582 6.88zM21.8 21.9l-6.2-4.96 6.2-4.238z"></path>
  </symbol>
  <symbol xmlns="http://www.w3.org/2000/svg" viewBox="0 0 24 24" id="icon-more">
    <path d="M8.8 20.8c0 1.8 1.4 3.2 3.2 3.2s3.2-1.4 3.2-3.2c0-1.8-1.4-3.2-3.2-3.2S8.8 19 8.8 20.8zm0-8.8c0 1.8 1.4 3.2 3.2 3.2s3.2-1.4 3.2-3.2-1.4-3.2-3.2-3.2-3.2 1.4-3.2 3.2zm0-8.8c0 1.8 1.4 3.2 3.2 3.2s3.2-1.4 3.2-3.2S13.8 0 12 0c-1.8 0-3.2 1.4-3.2 3.2z"></path>
  </symbol>
  <symbol xmlns="http://www.w3.org/2000/svg" viewBox="0 0 24 24" id="icon-notification">
    <path d="M9.6 20.8h4.8c0 1.3-1.1 2.4-2.4 2.4-1.3 0-2.4-1.1-2.4-2.4zm12-1.6H2.4L4.8 16v-5.6c0-2.5 1.9-6.2 5.6-7v-1c0-.9.7-1.6 1.6-1.6.9 0 1.6.7 1.6 1.6v1c3.7.8 5.6 4.5 5.6 7V16l2.4 3.2z"></path>
  </symbol>
  <symbol xmlns="http://www.w3.org/2000/svg" viewBox="0 0 24 24" id="icon-play-circle">
    <path d="M12 0C5.4 0 0 5.4 0 12s5.4 12 12 12 12-5.4 12-12S18.6 0 12 0zM6.4 18.4V5.6L19.2 12 6.4 18.4z"></path>
  </symbol>
  <symbol xmlns="http://www.w3.org/2000/svg" viewBox="0 0 24 24" id="icon-powerpoint">
    <path d="M24 3.2v17.6h-8.8v-3.2h5.6V16h-5.6v-1.6h5.6v-1.6h-5.6v-1.6h5.6V9.6h-5.6V8h5.6V6.4h-5.6V3.2zM13.6 0v24L0 21.5v-19zM9.8 10A2.862 2.862 0 0 0 7 7.2H3.8v9.6h1.6v-4H7A2.862 2.862 0 0 0 9.8 10zM7 11.2H5.4V8.8H7a1.2 1.2 0 0 1 0 2.4z"></path>
  </symbol>
  <symbol xmlns="http://www.w3.org/2000/svg" viewBox="0 0 24 24" id="icon-prepare">
    <path d="M23.636 1.472L22.531.367A.392.392 0 0 0 22.064.3l-3.438 1.908a.393.393 0 0 0-.2.371l.087 1.25-5.9 5.9-.553.554-.772.772a1.282 1.282 0 0 0-1.684.12l-.105.105-1.019.229a1.386 1.386 0 0 0-.985.408l-6.93 6.928a1.393 1.393 0 0 0 0 1.97l2.618 2.618a1.4 1.4 0 0 0 1.97 0l6.93-6.929a1.384 1.384 0 0 0 .408-.985 1.316 1.316 0 0 0-.015-.154l.243-.864.106-.106a1.28 1.28 0 0 0 .12-1.68l.773-.772.554-.554 5.9-5.9 1.25.087h.028a.389.389 0 0 0 .342-.2L23.7 1.939a.392.392 0 0 0-.064-.467zM2.684 20.4a.394.394 0 0 1-.557-.556l6.282-6.283a.393.393 0 0 1 .556.556zm7.7-4.862l-6.278 6.278a.393.393 0 0 1-.556-.556l6.281-6.281a.394.394 0 0 1 .566.547l-.009.009zm1.883-1.691l-.44.44-2.11-2.117.056-.056.38-.382a.52.52 0 0 1 .72 0l.142.143 1.106 1.106.144.143a.508.508 0 0 1 0 .718zm2-1.344l.555-.554 3.034 3.034a4.635 4.635 0 0 1 5.905 5.827s0 .008-.006.013-.013.027-.02.04a.4.4 0 0 1-.056.084c-.006.006-.007.013-.013.019s-.014.008-.02.013a.378.378 0 0 1-.379.08l-.017-.007-.017-.008a.393.393 0 0 1-.115-.077h-.006l-1.8-1.8a.9.9 0 0 0-1.262 0l-.9.9a.893.893 0 0 0 0 1.262l1.8 1.8v.006a.39.39 0 0 1 .076.115l.008.018.007.017a.383.383 0 0 1 .017.111.061.061 0 0 1 0 .019.384.384 0 0 1-.025.129l-.007.017a.379.379 0 0 1-.076.114v.008h-.006a.4.4 0 0 1-.114.076l-.018.008-.017.007a4.638 4.638 0 0 1-5.828-5.906L13.2 16.091a2.237 2.237 0 0 0 .077-.57.824.824 0 0 0 0-.088l.147-.52a2.072 2.072 0 0 0 .478-2.038zm-5.884-1.777a2.221 2.221 0 0 0-.473.075L6.133 9.024A4.633 4.633 0 0 1 .228 3.2l.008-.017.008-.019a.375.375 0 0 1 .076-.113v-.007h.008a.379.379 0 0 1 .114-.076l.018-.007a.374.374 0 0 1 .128-.025H.61a.355.355 0 0 1 .112.018c.006 0 .011.005.017.007l.018.008a.384.384 0 0 1 .115.076h.006l1.8 1.8a.887.887 0 0 0 .632.262.879.879 0 0 0 .629-.261l.9-.9a.89.89 0 0 0 0-1.26l-1.8-1.8V.88a.384.384 0 0 1-.078-.117L2.953.746 2.945.728a.385.385 0 0 1-.017-.112V.6a.379.379 0 0 1 .025-.131L2.96.452a.384.384 0 0 1 .076-.115V.33a.384.384 0 0 1 .125-.08l.017-.008L3.2.234a4.635 4.635 0 0 1 5.823 5.905l3.034 3.034-.553.554-.375.375a2.064 2.064 0 0 0-2.021.462z"></path>
  </symbol>
  <symbol xmlns="http://www.w3.org/2000/svg" viewBox="0 0 24 24" id="icon-print">
    <path d="M19.2 0H4.8v4.8h14.4V0zM0 6.4v14.4h4.8v-8h14.4v8H24V6.4H0zm20.8 4.8h-3.2V9.6h3.2v1.6zM6.4 24h11.2v-9.6H6.4V24z"></path>
  </symbol>
  <symbol xmlns="http://www.w3.org/2000/svg" viewBox="0 0 24 24" id="icon-remarque">
    <path d="M12.22 0a12 12 0 1 0 11.773 12.229A12 12 0 0 0 12.22 0zm6.357 18.614c-.048.083-.178.047-.266 0l-4.388-3.733c-1.614 1.517-3.476 2.3-4.134.913a11.287 11.287 0 0 1-.266-3.476l-1.65-1.658a2.923 2.923 0 0 1-2.348-.3C4.22 9.712 9.7 4.231 10.353 5.536a3.114 3.114 0 0 1 .308 2.349l1.672 1.642a10.584 10.584 0 0 1 3.475.266c1.352.652.605 2.515-.96 4.176l3.733 4.388c.1.035.1.165 0 .26z" fill-rule="evenodd"></path>
  </symbol>
  <symbol xmlns="http://www.w3.org/2000/svg" viewBox="0 0 24 24" id="icon-retroplanning">
    <path d="M7.6 2.8h8V1.405h-8zm-.509.621V0h-1.38v3.416a2.009 2.009 0 1 0 1.379 0zM6.4 5.95a.64.64 0 1 1 .633-.65v.01a.64.64 0 0 1-.633.64zM5.043 24h13.918a4.265 4.265 0 0 0 4.239-4.28V9.161H.805V19.72A4.266 4.266 0 0 0 5.043 24zm10.824-12.41h3.484v1.747h-3.484zm0 4.117h3.484v1.747h-3.484zm0 4.02h3.484v1.747h-3.484zm-5.747-8.139h3.488v1.747H10.12zm0 4.116h3.488v1.747H10.12zm0 4.02h3.488v1.747H10.12zm-5.744-8.138H7.86v1.747H4.376zm0 4.116H7.86v1.747H4.376zm0 4.021H7.86v1.747H4.376v-1.747zM2.181 5.68a2.879 2.879 0 0 1 2.863-2.888h.213V1.4h-.213A4.265 4.265 0 0 0 .8 5.681v2.08h1.382v-2.08zm15.6-2.888h1.179a2.879 2.879 0 0 1 2.861 2.888v2.08H23.2V5.68a4.266 4.266 0 0 0-4.241-4.28H17.78zm-.408.621V0h-1.381v3.413a2.009 2.009 0 1 0 1.377 0zm-.69 2.534a.64.64 0 1 1 .632-.648v.008a.639.639 0 0 1-.634.643z"></path>
  </symbol>
  <symbol xmlns="http://www.w3.org/2000/svg" viewBox="0 0 24 24" id="icon-scale">
    <path d="M23.2 8.8l-4-7.2H4.8l-4 7.2c0 2.2 1.8 4 4 4s4-1.8 4-4L5.7 3.2h5.5v17.6H6.4v1.6h11.2v-1.6h-4.8V3.2h5.5l-3.1 5.6c0 2.2 1.8 4 4 4s4-1.8 4-4zM3.4 7.3l1.4-2.6 1.4 2.6H3.4zm15.8-2.6l1.4 2.6h-2.8l1.4-2.6z"></path>
  </symbol>
  <symbol xmlns="http://www.w3.org/2000/svg" viewBox="0 0 24 24" id="icon-search">
    <path d="M22.4 21.3l-6.6-6.6c1.1-1.4 1.8-3.1 1.8-5.1 0-4.4-3.6-8-8-8s-8 3.6-8 8 3.6 8 8 8c1.9 0 3.7-.7 5.1-1.8l6.6 6.6 1.1-1.1zM9.6 16c-3.5 0-6.4-2.9-6.4-6.4s2.9-6.4 6.4-6.4S16 6.1 16 9.6 13.1 16 9.6 16z"></path>
  </symbol>
  <symbol xmlns="http://www.w3.org/2000/svg" viewBox="0 0 24 24" id="icon-share">
    <path d="M19.2 15.2c-1.3 0-2.4.6-3.1 1.6L8.6 13c.1-.3.2-.7.2-1s-.1-.7-.2-1L16 7.3c.7.9 1.9 1.5 3.1 1.5 2.2 0 4-1.8 4-4s-1.8-4-4-4-4 1.8-4 4c0 .4.1.7.2 1L7.9 9.5C7.2 8.6 6.1 8 4.8 8c-2.2 0-4 1.8-4 4s1.8 4 4 4c1.3 0 2.4-.6 3.1-1.6l7.4 3.7c-.1.3-.2.7-.2 1 0 2.2 1.8 4 4 4s4-1.8 4-4-1.7-3.9-3.9-3.9z"></path>
  </symbol>
  <symbol xmlns="http://www.w3.org/2000/svg" viewBox="0 0 24 24" id="icon-sub-sub-theme">
    <path d="M13.688 16.207h-3.375a.187.187 0 1 0 0 .374h3.375a.187.187 0 0 0 0-.374zm0 1.121h-3.375a.187.187 0 1 0 0 .374h3.375a.187.187 0 1 0 0-.374zm-1.312 1.121h-2.063a.187.187 0 1 0 0 .374h2.062a.187.187 0 0 0 0-.374zM23.962 21.8l.016-.033c0-.012.008-.024.011-.036a.237.237 0 0 1 .011-.038.28.28 0 0 0 0-.041V3.867C24 2.7 23.441 2 22.5 2h-2.455a2.307 2.307 0 0 1 .41.748H22.5c.185 0 .75 0 .75 1.121v16.912l-.607-.551a.376.376 0 0 0-.5 0l-.982.892-.532-.483v1.01l.281.255a.376.376 0 0 0 .5 0l.982-.892.982.892c.006.006.014.01.02.015a.333.333 0 0 0 .032.024l.032.017.033.016.036.011.034.008h.147l.038-.011a.094.094 0 0 0 .032-.011.258.258 0 0 0 .032-.018.314.314 0 0 0 .031-.018.288.288 0 0 0 .027-.022.358.358 0 0 0 .029-.027l.007-.006c.006-.006.01-.014.015-.02l.024-.032a.354.354 0 0 0 .016-.034zM20.627 9.1v.374a.75.75 0 0 0 .75-.748V5.363a.752.752 0 0 0-.75-.749v.375a.375.375 0 0 1 .373.374v3.364a.375.375 0 0 1-.373.373zM9.561 16.2h-3a.187.187 0 0 0 0 .374h3a.187.187 0 1 0 0-.374zm0 1.121h-3a.187.187 0 1 0 0 .374h3a.187.187 0 1 0 0-.374zm-1.312 1.128H6.562a.187.187 0 1 0 0 .374h1.687a.187.187 0 0 0 0-.374zM18.376 2h-2.457a2.307 2.307 0 0 1 .41.748h2.047c.185 0 .751 0 .751 1.121v16.912l-.608-.551a.376.376 0 0 0-.5 0l-.982.892-.532-.483v1.01l.281.255a.376.376 0 0 0 .505 0l.982-.892.983.892c.006.006.014.01.02.015a.191.191 0 0 0 .032.024.307.307 0 0 0 .031.017.211.211 0 0 0 .034.016l.036.011.034.008h.146l.038-.012.032-.011.033-.018a.238.238 0 0 0 .03-.018l.027-.022.029-.026.007-.006c.006-.006.01-.014.015-.02l.024-.032a.324.324 0 0 0 .017-.032l.016-.033c.005-.011.008-.024.011-.036a.237.237 0 0 1 .008-.034.28.28 0 0 0 0-.041V3.867C19.877 2.7 19.316 2 18.376 2zm-15 7.478h9a.75.75 0 0 0 .75-.748V5.363a.751.751 0 0 0-.75-.749h-9a.752.752 0 0 0-.75.749v3.364a.75.75 0 0 0 .747.749zM3 5.363a.375.375 0 0 1 .375-.374h9a.374.374 0 0 1 .375.374v3.364a.374.374 0 0 1-.375.374h-9A.375.375 0 0 1 3 8.728zm1.875 4.861h-1.5a.75.75 0 0 0-.75.748v3.739a.752.752 0 0 0 .75.748h1.5a.752.752 0 0 0 .751-.748v-3.739a.751.751 0 0 0-.753-.748zm.376 4.487a.376.376 0 0 1-.376.374h-1.5A.376.376 0 0 1 3 14.711v-3.739a.375.375 0 0 1 .375-.374h1.5a.376.376 0 0 1 .376.374zm7.126-4.487h-1.5a.749.749 0 0 0-.75.748v3.739a.75.75 0 0 0 .75.748h1.5a.751.751 0 0 0 .75-.748v-3.739a.75.75 0 0 0-.752-.748zm.375 4.487a.375.375 0 0 1-.375.374h-1.5a.375.375 0 0 1-.375-.374v-3.739a.374.374 0 0 1 .375-.374h1.5a.374.374 0 0 1 .375.374zm-5.628-4.487a.75.75 0 0 0-.75.748v3.739a.751.751 0 0 0 .75.748h1.5a.75.75 0 0 0 .75-.748v-3.739a.749.749 0 0 0-.75-.748zM9 10.972v3.739a.375.375 0 0 1-.375.374h-1.5a.375.375 0 0 1-.375-.374v-3.739a.374.374 0 0 1 .375-.374h1.5a.374.374 0 0 1 .375.374zm-3.563 5.235H2.811a.187.187 0 1 0 0 .374h2.626a.187.187 0 0 0 0-.374zm0 1.121H2.811a.187.187 0 1 0 0 .374h2.626a.187.187 0 1 0 0-.374zm-1.314 1.121H2.811a.187.187 0 0 0 0 .374h1.312a.187.187 0 0 0 0-.374zM14.25 2H1.5C.559 2 0 2.7 0 3.867v17.761A.374.374 0 0 0 .372 22a.38.38 0 0 0 .094-.013.368.368 0 0 0 .095.013.376.376 0 0 0 .252-.1l.985-.89.983.892a.376.376 0 0 0 .5 0l.982-.892.983.892a.376.376 0 0 0 .5 0l.982-.892.982.892a.376.376 0 0 0 .5 0l.982-.892.982.892a.376.376 0 0 0 .505 0l.98-.892.982.892a.376.376 0 0 0 .5 0l.982-.892.983.892c.006.006.014.01.02.015a.243.243 0 0 0 .032.024l.032.017a.253.253 0 0 0 .033.016l.036.011.034.008h.147l.037-.011a.094.094 0 0 0 .032-.011.258.258 0 0 0 .032-.018c.01-.006.021-.011.031-.018a.288.288 0 0 0 .027-.022.358.358 0 0 0 .029-.027l.007-.006c.006-.006.01-.014.015-.02l.024-.032a.324.324 0 0 0 .017-.032l.016-.033c.005-.011.008-.024.011-.036a.237.237 0 0 1 .008-.034.28.28 0 0 0 0-.041V3.867C15.751 2.7 15.19 2 14.25 2zm-.362 18.23l-.982.892-.982-.892a.376.376 0 0 0-.5 0l-.98.892-.982-.892a.376.376 0 0 0-.505 0l-.982.892-.982-.892a.376.376 0 0 0-.505 0l-.984.892-.983-.892a.374.374 0 0 0-.5 0l-.982.892-.983-.892a.376.376 0 0 0-.5 0l-.8.722V3.867c0-1.121.565-1.121.75-1.121H14.25c.186 0 .751 0 .751 1.121v16.914l-.607-.551a.377.377 0 0 0-.506 0zM16.5 9.1v.374a.75.75 0 0 0 .75-.748V5.363a.752.752 0 0 0-.75-.749v.375a.375.375 0 0 1 .375.374v3.364a.375.375 0 0 1-.375.373zm0 5.983v.374a.752.752 0 0 0 .75-.748v-3.737a.75.75 0 0 0-.75-.748v.376a.375.375 0 0 1 .375.374v3.737a.376.376 0 0 1-.375.374zm0 1.5h.563a.187.187 0 0 0 0-.374H16.5zm0 1.121h.563a.187.187 0 0 0 0-.374H16.5zm4.126-2.617v.374a.752.752 0 0 0 .75-.748v-3.74a.75.75 0 0 0-.75-.748v.375a.375.375 0 0 1 .375.374v3.737a.376.376 0 0 1-.375.374zm0 1.5h.563a.187.187 0 1 0 0-.374h-.562zm0 1.121h.563a.187.187 0 1 0 0-.374h-.562z"></path>
  </symbol>
  <symbol xmlns="http://www.w3.org/2000/svg" viewBox="0 0 24 24" id="icon-sub-theme">
    <path d="M18.626 17.047h-3.657a.225.225 0 1 0 0 .449h4.108a.226.226 0 0 0 .228-.224zm.457 1.345h-4.114a.225.225 0 1 0 0 .449h4.108a.225.225 0 1 0 0-.449zm-1.6 1.346h-2.52a.224.224 0 1 0 0 .448h2.52a.224.224 0 0 0 0-.448zm-3.43-2.691H10.4a.225.225 0 1 0 0 .449h3.656a.225.225 0 1 0 0-.449zm0 1.345H10.4a.225.225 0 1 0 0 .449h3.656a.225.225 0 1 0 0-.449zm-1.6 1.346H10.4a.224.224 0 1 0 0 .448h2.057a.224.224 0 1 0 0-.448zM6.512 8.972h10.972a.907.907 0 0 0 .914-.9V4.037a.908.908 0 0 0-.914-.9H6.512a.908.908 0 0 0-.914.9v4.037a.907.907 0 0 0 .914.898zm-.457-4.934a.454.454 0 0 1 .457-.449h10.972a.454.454 0 0 1 .457.449v4.037a.454.454 0 0 1-.457.449H6.512a.454.454 0 0 1-.457-.449zm2.28 5.832H6.512a.908.908 0 0 0-.914.9v4.484a.908.908 0 0 0 .914.9H8.34a.908.908 0 0 0 .914-.9v-4.488a.908.908 0 0 0-.914-.9zm.457 5.383a.453.453 0 0 1-.457.449H6.512a.454.454 0 0 1-.457-.449v-4.487a.453.453 0 0 1 .457-.448H8.34a.453.453 0 0 1 .457.448zm8.686-5.383h-1.823a.908.908 0 0 0-.914.9v4.484a.908.908 0 0 0 .914.9h1.829a.908.908 0 0 0 .914-.9v-4.488a.908.908 0 0 0-.915-.9zm.457 5.383a.454.454 0 0 1-.457.449h-1.823a.453.453 0 0 1-.457-.449v-4.487a.452.452 0 0 1 .457-.448h1.829a.453.453 0 0 1 .457.448zm-6.852-5.384a.908.908 0 0 0-.914.9v4.486a.908.908 0 0 0 .914.9h1.829a.908.908 0 0 0 .914-.9v-4.489a.908.908 0 0 0-.914-.9zm2.28.9v4.486a.454.454 0 0 1-.457.449h-1.823a.453.453 0 0 1-.457-.449v-4.489a.452.452 0 0 1 .457-.448h1.829a.453.453 0 0 1 .457.448zm-4.337 6.278h-3.2a.225.225 0 1 0 0 .449h3.2a.225.225 0 1 0 0-.449zm0 1.345h-3.2a.225.225 0 1 0 0 .449h3.2a.225.225 0 1 0 0-.449zm-1.6 1.346h-1.6a.224.224 0 1 0 0 .448h1.6a.224.224 0 1 0 0-.448zM19.769 0H4.226C3.081 0 2.4.84 2.4 2.243v21.308a.452.452 0 0 0 .453.449.45.45 0 0 0 .12-.016.449.449 0 0 0 .416-.1l1.2-1.072 1.2 1.071a.464.464 0 0 0 .616 0l1.2-1.071 1.2 1.071a.465.465 0 0 0 .615 0l1.2-1.071 1.2 1.071a.466.466 0 0 0 .616 0l1.2-1.071 1.2 1.071a.463.463 0 0 0 .617 0l1.2-1.071 1.2 1.071a.465.465 0 0 0 .615 0l1.2-1.071 1.2 1.071a.227.227 0 0 0 .025.018c.013.01.025.02.039.029l.038.02a.3.3 0 0 0 .041.019l.044.013.041.01a.434.434 0 0 0 .051 0h.039a.434.434 0 0 0 .051 0h.039l.045-.013a.149.149 0 0 0 .039-.013l.04-.022a.226.226 0 0 0 .037-.022.26.26 0 0 0 .032-.026.359.359 0 0 0 .036-.032l.009-.008a.215.215 0 0 0 .018-.024l.029-.038a.24.24 0 0 0 .021-.038.293.293 0 0 0 .019-.04.359.359 0 0 0 .014-.043.222.222 0 0 1 .01-.041.2.2 0 0 0 0-.049V2.243C21.6.84 20.913 0 19.769 0zm-.441 21.874l-1.2 1.07-1.2-1.07a.463.463 0 0 0-.617 0l-1.2 1.07-1.2-1.07a.463.463 0 0 0-.615 0l-1.2 1.07-1.2-1.07a.464.464 0 0 0-.616 0l-1.2 1.07-1.2-1.07a.463.463 0 0 0-.615 0l-1.2 1.07-1.2-1.07a.464.464 0 0 0-.616 0l-.971.866V2.243C3.278.9 3.967.9 4.193.9h15.576c.225 0 .914 0 .914 1.345v20.29l-.739-.661a.464.464 0 0 0-.616 0z"></path>
  </symbol>
  <symbol xmlns="http://www.w3.org/2000/svg" viewBox="0 0 24 24" id="icon-tendance">
    <path d="M12 24a12 12 0 1 1 12-12 12.013 12.013 0 0 1-12 12zM12 .75A11.25 11.25 0 1 0 23.25 12 11.263 11.263 0 0 0 12 .75zM6.364 15.5l.63-.631v3.4a.482.482 0 0 1-.481.481h-1.79a.481.481 0 0 1-.481-.481v-2.306a1.631 1.631 0 0 0 .7.131 2.01 2.01 0 0 0 1.422-.594zm2.953-2.955L8.29 13.573v4.7a.48.48 0 0 0 .48.48h1.772a.484.484 0 0 0 .5-.472v-4.026c-.034-.016-.049-.05-.082-.082zm3 2.239v3.481a.482.482 0 0 0 .48.481h1.771a.471.471 0 0 0 .48-.461v-5.379l-1.275 1.275a2.055 2.055 0 0 1-1.459.6zm5.122-4.247l-1.094 1.095v6.633a.485.485 0 0 0 .489.481h1.8a.482.482 0 0 0 .481-.481V10.9a2.055 2.055 0 0 1-.45.05 1.839 1.839 0 0 1-1.23-.415zM19.66 5.46a.686.686 0 0 0-.63-.2l-3.05.481a.742.742 0 0 0-.58.5.734.734 0 0 0 .182.75l.713.714-3.93 3.915-2.486-2.488a.811.811 0 0 0-1.144 0l-4.376 4.38a.812.812 0 0 0 0 1.145.8.8 0 0 0 1.125 0L9.3 10.84l2.486 2.488a.809.809 0 0 0 1.144 0l4.492-4.5.713.713a.75.75 0 0 0 .514.215 1.072 1.072 0 0 0 .232-.032.713.713 0 0 0 .5-.58l.48-3.036a.705.705 0 0 0-.2-.648z"></path>
  </symbol>
  <symbol xmlns="http://www.w3.org/2000/svg" viewBox="0 0 24 24" id="icon-tooltip">
    <path d="M12 0C5.4 0 0 5.4 0 12s5.4 12 12 12 12-5.4 12-12S18.6 0 12 0zm0 22.4C6.3 22.4 1.6 17.7 1.6 12S6.3 1.6 12 1.6 22.4 6.3 22.4 12 17.7 22.4 12 22.4zm-.8-3.2h1.6V16h-1.6v3.2zM12 4.8c-2.4 0-4.2 1.5-4.2 4h1.6c0-1.6 1.1-2.4 2.6-2.4 1.3 0 2.4.7 2.4 1.6 0 2.6-3.2 2.1-3.2 6.4h1.6C12.7 11.1 16 11.5 16 8c0-1.8-1.8-3.2-4-3.2z"></path>
  </symbol>
  <symbol xmlns="http://www.w3.org/2000/svg" viewBox="0 0 24 24" id="icon-trash">
    <path d="M16.8 4c0-1.8-1.4-3.2-3.2-3.2h-3.2C8.6.8 7.2 2.2 7.2 4H1.6v1.6h1.6v17.6h17.6V5.6h1.6V4h-5.6zm-6.4-1.6h3.2c.9 0 1.6.7 1.6 1.6H8.8c0-.9.7-1.6 1.6-1.6zm-.8 16H8V8.8h1.6v9.6zm3.2 0h-1.6V8.8h1.6v9.6zm3.2 0h-1.6V8.8H16v9.6z"></path>
  </symbol>
  <symbol xmlns="http://www.w3.org/2000/svg" viewBox="0 0 24 24" id="icon-twitter">
    <path d="M23.2 5c-.8.3-1.7.6-2.7.7.9-.6 1.7-1.5 2-2.6-.9.5-1.9.9-2.9 1.1-.8-.9-2-1.5-3.3-1.5-2.6 0-4.6 2.1-4.6 4.7 0 .3 0 .7.1 1.1-3.8-.1-7.2-2-9.4-4.8-.4.7-.7 1.5-.7 2.3 0 1.6.8 3 2.1 3.8-.8.1-1.5-.2-2.1-.5v.1c0 2.2 1.6 4.1 3.7 4.5-.5.1-.9.1-1.3.1-.3 0-.6 0-.8-.1.6 1.8 2.3 3.2 4.3 3.2-1.6 1.2-3.6 2-5.7 2-.3 0-.7 0-1.1-.1 2.1 1.3 4.5 2.1 7.1 2.1 8.4.1 13.1-7 13.1-13.1v-.6c.8-.6 1.6-1.4 2.2-2.4z"></path>
  </symbol>
  <symbol xmlns="http://www.w3.org/2000/svg" viewBox="0 0 24 24" id="icon-youtube">
    <path d="M22.7 6.6c-.2-1-1-1.8-2-2-1.7-.4-8.7-.4-8.7-.4s-7 0-8.7.5c-1 .2-1.8 1-2 2C.8 8.3.8 12 .8 12s0 3.7.5 5.4c.2 1 1 1.8 2 2 1.7.4 8.7.4 8.7.4s7 0 8.7-.5c1-.2 1.8-1 2-2 .5-1.7.5-5.4.5-5.4s0-3.6-.5-5.3zM9.8 15.4V8.6l5.8 3.4-5.8 3.4z"></path>
  </symbol>
  <symbol xmlns="http://www.w3.org/2000/svg" viewBox="0 0 16 16" width="16" height="14" id="icon-bookmark">
    <path d="M8,15.531l-1.16-1.063C2.725,10.707,0,8.226,0,5.185A4.371,4.371,0,0,1,4.311.752H4.4A4.781,4.781,0,0,1,8,2.435,4.779,4.779,0,0,1,11.6.751,4.373,4.373,0,0,1,16,5.1v.085c0,3.04-2.72,5.526-6.839,9.295Z"></path>
  </symbol>
  <symbol xmlns="http://www.w3.org/2000/svg" viewBox="0 0 16 16" id="icon-notification">
    <path d="M5.4,12.3h3c0,0.8-0.7,1.5-1.5,1.5S5.4,13.1,5.4,12.3z M12.8,11.3H0.9l1.5-2V5.9c0.1-2,1.5-3.8,3.4-4.3V1c0-0.5,0.4-1,1-1s1,0.4,1,1v0.6c2,0.5,3.4,2.3,3.4,4.3v3.4L12.8,11.3z"/>
  </symbol>
  <symbol xmlns="http://www.w3.org/2000/svg" viewBox="0 0 16 16" id="icon-notification-on">
    <path d="M15.1,13.2c0,1.6-1.3,2.8-2.8,2.8s-2.8-1.3-2.8-2.8s1.3-2.8,2.8-2.8S15.1,11.6,15.1,13.2z M6.9,13.8c0.8,0,1.5-0.7,1.5-1.5h-3C5.4,13.1,6,13.8,6.9,13.8z M11.4,9.5l-0.1-0.1V5.9c-0.1-2-1.5-3.8-3.4-4.3V1c0-0.5-0.4-1-1-1s-1,0.4-1,1v0.6c-2,0.5-3.4,2.3-3.5,4.3v3.4l-1.5,2h8C9.5,10.4,10.4,9.8,11.4,9.5z"/>
  </symbol>
  <symbol xmlns="http://www.w3.org/2000/svg" id="icon-notification-off">
    <path d="M-8447.744-1587.646h11.5a5.846,5.846,0,0,1-5.751,5.785A5.846,5.846,0,0,1-8447.744-1587.646Zm21.585-3.858H-8465l5.753-7.714v-13.5a17.855,17.855,0,0,1,2.733-8.973l-8.484-8.437,3.6-3.58,44.4,44.15-3.6,3.58Zm1.423-11.311-25.33-25.187a15.7,15.7,0,0,1,4.238-1.591V-1632a3.8,3.8,0,0,1,3.837-3.856,3.8,3.8,0,0,1,3.834,3.856v2.411a16.51,16.51,0,0,1,10.036,6.9,18.321,18.321,0,0,1,3.387,9.974v9.906Z" transform="translate(8465.003 1635.86)" />
  </symbol>
</svg>