<svg xmlns="http://www.w3.org/2000/svg" viewBox="0 0 40 40" width="30" height="30">
  <g id="uuid-8e9efb6a-515f-4256-aa1e-dd210c91bb4d" data-name="Calque 2">
    <circle cx="20" cy="20" r="20" style="fill: #00A9E2;"/>
  </g>
  <g id="uuid-51979414-5e38-4395-864a-c86dd163c263" data-name="Calque 1">
    <path id="uuid-9d1e32a3-b165-4e10-a789-701c3f3bda28" data-name="Tracé 4540" d="M24.03,28v-4h4v4h-4Zm-6,0v-4h4v4h-4Zm-6,0v-4h4v4h-4Zm-.05-9.96l4-.07,.07,4-4,.07-.07-4Zm12.05,3.96v-4h4v4h-4Zm-6,0v-4h4v4h-4Zm6-6v-4h4v4h-4Zm-6,0v-4h4v4h-4Zm-6,0v-4h4v4h-4Z" style="fill: #fff;"/>
  </g>
</svg>